<svg width="40" height="40" viewBox="0 0 40 40" fill="none" xmlns="http://www.w3.org/2000/svg">
<path d="M35.95 18.65C35.95 18.6 35.9 18.4 35.85 18.25L31.5 9.1C31.4 8.8 31.05 8.55 30.7 8.55H20.85V6.3C20.85 5.7 20.4 5.25 19.8 5.25C19.2 5.25 18.75 5.65 18.75 6.2V8.5H9.05C8.75 8.5 8.4 8.8 8.25 9.1L3.85 18.2C3.8 18.35 3.75 18.6 3.75 18.6C3.75 21.6 6.15 24 9.15 24C12.15 24 14.55 21.6 14.55 18.6C14.55 18.55 14.55 18.35 14.45 18.2L10.8 10.55H18.75V32.7H10.3C9.7 32.7 9.25 33.15 9.25 33.75C9.25 34.35 9.7 34.8 10.3 34.8H29.3C29.9 34.8 30.35 34.35 30.35 33.75C30.35 33.15 29.9 32.7 29.3 32.7H20.85V10.55H28.8L25.15 18.2C25.05 18.35 25.05 18.6 25.05 18.6C25.05 21.6 27.45 24 30.45 24C33.45 24.05 35.95 21.65 35.95 18.65ZM9.15 11.95L11.85 17.6H6.45L9.15 11.95ZM9.15 21.95C7.7 21.95 6.45 21 6 19.7H12.25C11.85 21 10.6 21.95 9.15 21.95ZM33.25 17.6H27.8L30.5 11.95L33.25 17.6ZM30.5 21.95C29.05 21.95 27.8 21 27.35 19.7H33.6C33.25 21 31.95 21.95 30.5 21.95Z" fill="black"/>
</svg>
