<svg width="40" height="40" viewBox="0 0 40 40" fill="none" xmlns="http://www.w3.org/2000/svg">
<path d="M2.5 35C2.5 36.3828 3.61719 37.5 5 37.5H17.5V25H2.5V35ZM22.5 37.5H35C36.3828 37.5 37.5 36.3828 37.5 35V25H22.5V37.5ZM37.5 12.5H34.2109C34.6953 11.5547 35 10.5078 35 9.375C35 5.58594 31.9141 2.5 28.125 2.5C24.875 2.5 22.7734 4.16406 20.0781 7.83594C17.3828 4.16406 15.2812 2.5 12.0312 2.5C8.24219 2.5 5.15625 5.58594 5.15625 9.375C5.15625 10.5078 5.45312 11.5547 5.94531 12.5H2.5C1.11719 12.5 0 13.6172 0 15V21.25C0 21.9375 0.5625 22.5 1.25 22.5H38.75C39.4375 22.5 40 21.9375 40 21.25V15C40 13.6172 38.8828 12.5 37.5 12.5ZM12.0234 12.5C10.2969 12.5 8.89844 11.1016 8.89844 9.375C8.89844 7.64844 10.2969 6.25 12.0234 6.25C13.5781 6.25 14.7266 6.50781 18.75 12.5H12.0234ZM28.125 12.5H21.3984C25.4141 6.52344 26.5312 6.25 28.125 6.25C29.8516 6.25 31.25 7.64844 31.25 9.375C31.25 11.1016 29.8516 12.5 28.125 12.5Z" fill="black"/>
</svg>
