<svg width="40" height="40" viewBox="0 0 40 40" fill="none" xmlns="http://www.w3.org/2000/svg">
<path d="M18.4335 23.1758C18.4335 19.1269 14.2989 15.833 9.21664 15.833C4.13449 15.833 0 19.1269 0 23.1758C0 24.3623 0.355346 25.4838 0.985378 26.4765L9.21664 39.9998L17.4494 26.4745C18.0785 25.4821 18.4335 24.3614 18.4335 23.1758ZM9.21664 27.2393C6.40427 27.2393 4.1161 25.4163 4.1161 23.1758C4.1161 20.9352 6.40427 19.1123 9.21664 19.1123C12.0291 19.1123 14.3172 20.9352 14.3172 23.1758C14.3172 25.4163 12.0291 27.2393 9.21664 27.2393Z" fill="black"/>
<path d="M35.3327 0C32.7593 0 30.6655 1.66795 30.6655 3.71813C30.6655 4.31895 30.8456 4.88681 31.1645 5.38965L35.3327 12.2375L39.5014 5.38857C39.82 4.88606 39.9998 4.31853 39.9998 3.71821C39.9998 1.66795 37.906 0 35.3327 0ZM35.3327 5.7758C33.9085 5.7758 32.7499 4.85276 32.7499 3.71813C32.7499 2.58358 33.9085 1.66045 35.3327 1.66045C36.7567 1.66045 37.9154 2.58358 37.9154 3.71813C37.9154 4.85276 36.7567 5.7758 35.3327 5.7758Z" fill="black"/>
<path d="M31.2681 24.1218C31.0788 23.4123 30.8328 22.7171 30.523 22.0346C30.1078 21.12 29.6098 20.2263 29.2284 19.3013C28.5155 17.5724 29.7453 16.1295 29.9765 15.8672C30.3814 15.408 30.855 14.9865 31.3546 14.5918C32.3166 13.832 33.3775 13.1528 34.4874 12.5272C34.3499 12.3575 34.2167 12.1859 34.0898 12.0112C32.4935 12.5098 24.2837 14.7957 24.4839 19.8458C24.524 20.8581 25.015 21.8216 25.3176 22.8029C25.4633 23.2758 25.5898 23.7529 25.6671 24.2362C25.7004 24.4537 25.7209 24.6726 25.7432 24.8912C25.7439 24.8896 25.7437 24.8884 25.7424 24.8875C25.7431 24.8938 25.7635 25.5805 25.7253 25.878C25.6054 26.8094 25.4328 27.7504 24.94 28.6048C24.4816 29.3991 23.79 30.0899 22.9346 30.636C20.9791 31.8841 18.3882 32.383 15.9434 32.5836C15.827 32.5934 15.7106 32.6017 15.5942 32.6098L11.229 39.781C13.3828 39.6744 15.5311 39.4395 17.627 39.0286C20.0935 38.5449 22.4973 37.8143 24.6511 36.7313C26.803 35.6496 28.6536 34.1861 29.8856 32.4042C31.1744 30.5404 31.6907 28.4056 31.5808 26.2902C31.5435 25.5676 31.4574 24.831 31.2681 24.1218Z" fill="black"/>
</svg>
